<svg xmlns="http://www.w3.org/2000/svg" viewBox="0 0 64 64" role="img" aria-label="Reineke">
  <defs>
    <linearGradient id="rk-fur" x1="18" y1="8" x2="52" y2="52" gradientUnits="userSpaceOnUse">
      <stop offset="0" stop-color="#E06A2E"/>
      <stop offset="1" stop-color="#C24A18"/>
    </linearGradient>
    <linearGradient id="rk-fur-deep" x1="12" y1="10" x2="30" y2="44" gradientUnits="userSpaceOnUse">
      <stop offset="0" stop-color="#B84216"/>
      <stop offset="1" stop-color="#8F3210"/>
    </linearGradient>
    <linearGradient id="rk-muzzle" x1="34" y1="30" x2="58" y2="56" gradientUnits="userSpaceOnUse">
      <stop offset="0" stop-color="#FFFFFF"/>
      <stop offset="1" stop-color="#F1EBE3"/>
    </linearGradient>
  </defs>

  <!-- Hals / Brust -->
  <path fill="url(#rk-muzzle)" d="M10 54c0-10 7-18 17-22 3-1 7-2 11-2 1 0 2 0 3 0-9 5-15 14-17 24-1 5-3 8-6 9-5 2-8-1-8-9z"/>

  <!-- Kopf Rücken & Wangen -->
  <path fill="url(#rk-fur)" d="M15 46c-3-12 1-25 12-32 5-3 11-4 17-2 6 2 11 7 13 14 2 7 0 14-5 19-4 4-9 6-14 6-4 0-8-2-11-5-2 3-5 5-9 4-1-1-2-3-3-4z"/>

  <!-- Hinteres Ohr -->
  <path fill="url(#rk-fur-deep)" d="M17 20 9 6l5-2 7 8z"/>
  <path fill="#F0C9B0" opacity="0.55" d="M15 17 11 9l3-1 4 5z"/>

  <!-- Vorderes Ohr -->
  <path fill="url(#rk-fur)" d="M29 13 26 2l7-1 5 9z"/>
  <path fill="#F0C9B0" opacity="0.5" d="M30 11 28 5l4-1 3 5z"/>

  <!-- Schnauze -->
  <path fill="url(#rk-muzzle)" d="M36 30c9 2 16 9 18 18 1 5-1 10-5 13-5 4-12 4-17 1-6-4-9-10-8-17 1-6 6-11 12-15z"/>

  <!-- Wangen-Abschluss -->
  <path fill="#E8DDD2" opacity="0.45" d="M34 38c4 4 10 5 15 2 2-1 3-3 4-5-3 3-7 5-11 5-4 0-7-1-8-2z"/>

  <!-- Auge -->
  <path stroke="#2B2118" stroke-width="1.7" stroke-linecap="round" fill="none" d="M31 31c3-2 6-2 9 0"/>

  <!-- Nase -->
  <circle cx="51.5" cy="44.5" r="2.1" fill="#2B2118"/>
</svg>
