<svg xmlns="http://www.w3.org/2000/svg" viewBox="0 0 200 120" fill="none" aria-hidden="true">
  <defs>
    <path id="ws-arc" d="M 18 52 Q 100 8 182 52" />
  </defs>
  <text fill="#faf8f2" font-family="Georgia, 'Times New Roman', serif" font-size="15" font-weight="600" letter-spacing="0.18em">
    <textPath href="#ws-arc" startOffset="50%" text-anchor="middle">WEISSER SCHÄFER</textPath>
  </text>
  <g transform="translate(100 78)">
    <ellipse cx="0" cy="18" rx="28" ry="10" fill="#faf8f2" opacity="0.12"/>
    <path fill="#faf8f2" d="M-22 8c0-14 10-26 22-26s22 12 22 26c0 8-4 14-8 18l-6 10h-16l-6-10c-4-4-8-10-8-18z"/>
    <circle cx="-8" cy="2" r="3" fill="#1a1c18"/>
    <circle cx="8" cy="2" r="3" fill="#1a1c18"/>
    <path fill="none" stroke="#1a1c18" stroke-width="1.5" stroke-linecap="round" d="M-4 10 Q0 14 4 10"/>
    <path fill="#faf8f2" opacity="0.9" d="M-26 4c-6 2-10 8-8 12 2 4 8 2 10-2M26 4c6 2 10 8 8 12-2 4-8 2-10-2"/>
    <path fill="#faf8f2" d="M-18 18c-2 8 6 14 18 14s20-6 18-14l-4 8H-14l-4-8z"/>
  </g>
  <text x="100" y="112" fill="#c8c4b8" font-family="system-ui, sans-serif" font-size="8" letter-spacing="0.28em" text-anchor="middle">EST. 2024</text>
</svg>
