<svg xmlns="http://www.w3.org/2000/svg" viewBox="0 0 80 64" role="img" aria-label="Sueses Schaf Maskottchen">
  <ellipse cx="40" cy="54" rx="23" ry="7" fill="#0b120e" opacity="0.17" />

  <g fill="#f4f1e9">
    <circle cx="28" cy="24" r="8.2" />
    <circle cx="39.8" cy="18.8" r="10.2" />
    <circle cx="52" cy="24.2" r="8.1" />
    <ellipse cx="39.8" cy="30.6" rx="17.5" ry="13.3" />
  </g>

  <path fill="#c7bca8" d="M22 25.3c-4.2 1.8-6.5 5.1-5.3 7.8 1.1 2.6 4.7 3.2 7.7 1.5" />
  <path fill="#c7bca8" d="M57.8 25.3c4.2 1.8 6.5 5.1 5.3 7.8-1.1 2.6-4.7 3.2-7.7 1.5" />

  <ellipse cx="40" cy="27.7" rx="10.8" ry="9.5" fill="#efe9dc" />
  <ellipse cx="36.3" cy="31.4" rx="2.2" ry="1.4" fill="#f5b9bf" opacity="0.7" />
  <ellipse cx="43.7" cy="31.4" rx="2.2" ry="1.4" fill="#f5b9bf" opacity="0.7" />

  <circle cx="35.8" cy="26.4" r="1.65" fill="#10150f" />
  <circle cx="44.2" cy="26.4" r="1.65" fill="#10150f" />
  <circle cx="35.3" cy="25.8" r="0.45" fill="#ffffff" />
  <circle cx="43.7" cy="25.8" r="0.45" fill="#ffffff" />

  <path d="M39.2 29.2h1.6c.55 0 1 .45 1 1v.3c0 .55-.45 1-1 1h-1.6c-.55 0-1-.45-1-1v-.3c0-.55.45-1 1-1z" fill="#10150f" />
  <path d="M35.8 33c1 1.4 2.5 2.1 4.2 2.1s3.2-.7 4.2-2.1" fill="none" stroke="#10150f" stroke-width="1.2" stroke-linecap="round" />

  <ellipse cx="34" cy="40.8" rx="2.3" ry="1.5" fill="#d9d1c4" />
  <ellipse cx="46" cy="40.8" rx="2.3" ry="1.5" fill="#d9d1c4" />
</svg>
